<svg xmlns="http://www.w3.org/2000/svg" width="512" height="512"><path fill-opacity=".263" d="M266.5 130.403c-60.5 12.163-111.008 22.687-112.24 23.385-5.34 3.031-5.26 1.94-5.26 71.694 0 70.809.092 69.667-5.913 73.319-1.669 1.015-7.884 2.851-13.811 4.081-23.099 4.792-32.373 9.039-37.957 17.384-8.597 12.846-6.244 33.651 4.883 43.175 6.065 5.191 12.508 7.077 23.798 6.964 21.619-.215 36.143-8.218 42.212-23.258l2.279-5.647.504-75.17.505-75.171 2.435-2.591c1.339-1.425 4.039-3.019 6-3.542 9.305-2.485 98.645-19.995 103.286-20.243l5.279-.283.262 37.702.262 37.701-3.105 3.536c-3.388 3.86-4.539 4.278-22.419 8.163-27.455 5.966-36.846 14.835-36.952 34.898-.056 10.581 1.921 15.969 8.143 22.191 8.367 8.367 20.869 11.051 37.127 7.97 19.57-3.709 29.999-13.088 32.983-29.661.603-3.345.813-22.352.538-48.5-.249-23.65-.09-51.071.354-60.935l.807-17.935 35.459-7.152 35.458-7.152 2.292 2.292 2.291 2.291V295.93l-3.093 3.523c-3.375 3.844-4.537 4.267-22.407 8.149-27.455 5.966-36.846 14.835-36.952 34.898-.056 10.581 1.921 15.969 8.143 22.191 8.367 8.367 20.869 11.051 37.127 7.97 17.724-3.359 26.848-10.333 31.703-24.232 1.594-4.566 1.708-13.444 1.537-120.429-.158-99.345-.388-115.815-1.644-117.75-1.277-1.967-2.243-2.232-7.687-2.106-3.583.084-52.927 9.533-116.227 22.259M403.75 346.08c-1.61.938-1.75 3.623-1.75 33.535 0 32.151-.308 35.555-3.4 37.62-1.875 1.252-7.555.84-10.679-.776-3.821-1.976-4.925-1.222-4.906 3.35.027 6.346 2.771 8.191 12.185 8.191 8.526 0 12.567-2.191 15.8-8.568 2.495-4.923 2.501-4.993 2.833-38.384.31-31.106.209-33.544-1.441-34.75-2.105-1.54-6.196-1.643-8.642-.218m39.78.514c-11.345 4.153-16.804 18.011-11.452 29.067 2.789 5.762 6.288 8.503 18.978 14.867 5.899 2.959 11.675 6.586 12.835 8.061 2.522 3.206 2.786 9.201.592 13.444-3.651 7.06-15.665 8.345-27.409 2.932-3.8-1.752-7.396-2.884-7.991-2.516-1.842 1.138-1.282 8.061.805 9.949 5.52 4.996 20.964 7.335 30.853 4.672C470.87 424.342 478 415.119 478 404.744c0-10.961-5.047-16.953-20.549-24.395C446.218 374.956 442 370.793 442 365.1c0-4.79 2.833-8.56 7.618-10.139 4.593-1.516 10.183-.61 17.081 2.768 4.589 2.247 5.583 2.437 6.355 1.217 1.474-2.328 1.085-6.562-.804-8.764-4.054-4.726-20.127-6.733-28.72-3.588" fill="#1976D2" fill-rule="evenodd"/><path fill-opacity=".021" d="M266.5 130.403c-60.5 12.163-111.008 22.687-112.24 23.385-5.34 3.031-5.26 1.94-5.26 71.694 0 70.809.092 69.667-5.913 73.319-1.669 1.015-7.884 2.851-13.811 4.081-23.099 4.792-32.373 9.039-37.957 17.384-8.597 12.846-6.244 33.651 4.883 43.175 6.065 5.191 12.508 7.077 23.798 6.964 21.619-.215 36.143-8.218 42.212-23.258l2.279-5.647.504-75.17.505-75.171 2.435-2.591c1.339-1.425 4.039-3.019 6-3.542 9.305-2.485 98.645-19.995 103.286-20.243l5.279-.283.262 37.702.262 37.701-3.105 3.536c-3.388 3.86-4.539 4.278-22.419 8.163-27.455 5.966-36.846 14.835-36.952 34.898-.056 10.581 1.921 15.969 8.143 22.191 8.367 8.367 20.869 11.051 37.127 7.97 19.57-3.709 29.999-13.088 32.983-29.661.603-3.345.813-22.352.538-48.5-.249-23.65-.09-51.071.354-60.935l.807-17.935 35.459-7.152 35.458-7.152 2.292 2.292 2.291 2.291V295.93l-3.093 3.523c-3.375 3.844-4.537 4.267-22.407 8.149-27.455 5.966-36.846 14.835-36.952 34.898-.056 10.581 1.921 15.969 8.143 22.191 8.367 8.367 20.869 11.051 37.127 7.97 17.724-3.359 26.848-10.333 31.703-24.232 1.594-4.566 1.708-13.444 1.537-120.429-.158-99.345-.388-115.815-1.644-117.75-1.277-1.967-2.243-2.232-7.687-2.106-3.583.084-52.927 9.533-116.227 22.259m178.84 215.972c-11.162 3.652-16.65 13.22-14.205 24.764 1.571 7.412 6.104 11.726 19.77 18.812 13.458 6.978 15.558 9.166 15.58 16.233.038 12.065-15.342 16.591-30.39 8.943-5.96-3.028-6.069-3.044-7.14-1.042-.599 1.118-.787 3.402-.42 5.076 1.47 6.689 19.721 10.941 31.842 7.418 7.845-2.281 14.091-8.048 16.122-14.887 2.117-7.128 1.883-10.533-1.139-16.598-2.904-5.826-8.206-9.865-19.75-15.044-8.35-3.747-13.368-8.245-14.211-12.738-.876-4.669 1.559-9.722 5.724-11.875 4.224-2.185 12.925-1.56 18.957 1.36 6.463 3.129 7.088 2.938 6.727-2.047-.287-3.978-.615-4.403-5.124-6.638-5.889-2.92-16.264-3.727-22.343-1.737m-42.529 32.869c-.273 29.308-.516 33.661-2.004 35.929-2.241 3.419-5.782 4.174-11.017 2.351-2.359-.822-4.627-1.501-5.04-1.509-.413-.008-.75 1.994-.75 4.45 0 5.753 2.056 6.989 11.677 7.015 8.111.023 11.305-1.611 14.823-7.585 1.897-3.221 2-5.193 2-38.395v-35l-4.689-.302-4.688-.303-.312 33.349" fill="#1976D2" fill-rule="evenodd"/><path fill-opacity=".217" d="M448.326 346.016c-5.786 1.184-9.502 3.282-13.128 7.412-5.454 6.211-5.711 17.535-.565 24.857 2.325 3.308 5.429 5.472 15.377 10.72 13.387 7.063 16.991 10.54 16.988 16.393-.002 4.574-3.02 9.674-6.998 11.825-5.194 2.809-15.715 2.134-23.1-1.481-3.079-1.508-6.117-2.742-6.75-2.742-1.907 0-1.386 7.477.65 9.319 5.16 4.669 18.64 6.706 28.215 4.262 13.736-3.506 20.878-14.848 17.515-27.814-1.769-6.817-6.072-10.836-18.505-17.285-5.789-3.003-11.221-6.027-12.071-6.721-3.106-2.534-4.954-6.296-4.954-10.084 0-3.076.702-4.579 3.4-7.277 3.156-3.156 3.856-3.399 9.75-3.39 4.653.007 7.78.675 11.699 2.5 2.942 1.369 5.755 2.49 6.25 2.49 1.423 0 1.048-7.633-.435-8.864-4.014-3.331-16.459-5.528-23.338-4.12m-44.612.604c-.393.392-.714 14.746-.714 31.897 0 31.605-.483 36.565-3.819 39.233-2.11 1.687-7.049 1.567-10.545-.256-4.166-2.173-4.636-1.921-4.636 2.483 0 5.424 3.201 7.525 11.456 7.518 7.502-.006 12.026-2.426 14.946-7.995 2.013-3.837 2.098-5.403 2.098-38.5v-34.5l-4.036-.297c-2.22-.163-4.358.024-4.75.417" fill="#1976D2" fill-rule="evenodd"/></svg>