<?xml version="1.0" encoding="UTF-8" standalone="no"?><!-- Generator: Gravit.io --><svg xmlns="http://www.w3.org/2000/svg" xmlns:xlink="http://www.w3.org/1999/xlink" style="isolation:isolate" viewBox="0 0 512 512" width="512pt" height="512pt"><defs><clipPath id="_clipPath_zVtGUr6FSlotNe6DI2974XPvPnvwbfm7"><rect width="512" height="512"/></clipPath></defs><g clip-path="url(#_clipPath_zVtGUr6FSlotNe6DI2974XPvPnvwbfm7)"><path d=" M 376 108.439 C 357.26 111.36 338.608 116.079 320 119.8 C 283.344 127.13 246.656 134.268 210 141.6 C 196.334 144.334 182.658 147.026 169 149.801 C 163.392 150.94 155.511 151.48 151.653 156.214 C 148.681 159.86 149.002 164.584 149 169 L 149 191 L 149 262 C 149 271.114 151.477 284.624 147.427 292.996 C 143.311 301.505 133.083 301.824 125 303.65 C 107.422 307.622 89.649 312.617 86.439 333 C 82.984 354.938 98.034 371.417 120 370.985 C 134.935 370.691 152.406 365.908 160.095 352 C 166.822 339.832 165 324.372 165 311 L 165 233 L 165 203 C 165.01 196.767 165.313 190.554 171.019 186.728 C 177.669 182.269 189.229 181.754 197 180.2 L 254 168.8 C 260.311 167.538 266.627 166.034 273 165.131 C 275.28 164.808 278.546 163.887 280.682 165.117 C 284.978 167.591 283 178.806 283 183 L 283 222 C 283 227.436 284.328 235.011 281.821 239.999 C 277.462 248.672 267.363 249.271 259 251.003 C 243.735 254.165 226.125 259.045 221.49 276 C 217.133 291.939 222.762 309.388 239 315.731 C 245.224 318.163 252.404 318.469 259 317.83 C 264.325 317.315 269.917 316.316 275 314.641 C 278.884 313.361 282.671 311.607 285.999 309.211 C 303.785 296.413 299.226 273.648 299.004 255 C 298.77 235.34 298.999 215.662 299 196 C 299.001 187.962 300 180.054 300 172 C 300 168.824 299.191 164.111 301.028 161.314 C 303.092 158.172 308.666 158.067 312 157.4 L 341 151.6 C 347.665 150.267 354.361 149.034 361 147.576 C 363.874 146.945 367.603 145.384 370.56 146.181 C 377.081 147.94 376 156.932 376 162 L 376 211 L 376 275 C 376 283.08 378.096 293.653 371.891 299.892 C 366.86 304.95 359.644 305.451 353 306.801 C 339.845 309.474 323.629 313.034 316.825 326 C 306.433 345.804 317.275 370.722 340 373.711 C 359.512 376.276 383.736 369.219 390.477 349 C 394.271 337.621 392.889 325.669 392.09 314 C 391.569 306.393 392 298.624 392 291 L 392 168 L 392 127 C 392 122.266 393.491 114.238 390.258 110.318 C 387.277 106.704 380.072 107.804 376 108.439 Z " fill="rgb(247,183,34)"/><path d=" M 384 415 C 383.111 418.014 382.313 421.73 384.179 424.606 C 388.254 430.887 403.03 428.6 407.786 424.442 C 412.438 420.376 413.027 413.748 413.715 408 C 415.465 393.361 414 377.743 414 363 C 414 357.147 416.329 342.719 406.059 345.449 C 399.66 347.15 402 359.017 402 364 L 402 403 C 401.998 407.697 402.521 414.039 397.786 416.82 C 393.404 419.395 388.285 416.222 384 415 Z  M 473 360 C 477.639 340.276 444.305 341.928 435.214 352.044 C 432.934 354.581 431.298 357.674 430.529 361 C 426.894 376.725 438.725 384.615 451 390.753 C 456.762 393.634 464.65 396.747 465.756 404 C 467.962 418.461 449.44 420.047 440 416.123 C 437.329 415.013 430.673 410.218 428.604 414.333 C 424.948 421.605 434.758 425.888 440 427.239 C 451.238 430.137 465.825 428.502 473.468 418.96 C 475.549 416.361 477.082 413.288 477.671 410 C 478.186 407.117 478.155 403.913 477.906 401 C 476.331 382.597 453.506 383.153 444.434 370.985 C 437.022 361.045 449.636 352.504 459 354.925 C 463.875 356.185 468.055 359.057 473 360 Z " fill="rgb(160,160,160)"/></g></svg>